<svg width="2400" height="800" viewBox="0 0 2400 800" fill="none" xmlns="http://www.w3.org/2000/svg">
<path d="M697 304.866C682.745 436.299 544.359 640.085 449.134 742.338C353.572 639.723 215.679 437.745 201.267 304.866C201.267 167.974 312.241 57 449.134 57C586.027 57 697 167.974 697 304.866Z" fill="#A33829"/>
<mask id="mask0_4_42" style="mask-type:alpha" maskUnits="userSpaceOnUse" x="201" y="57" width="496" height="686">
<path d="M449.134 57.5C585.741 57.5 696.484 168.235 696.499 304.839C689.376 370.438 651.101 454.333 602.75 534.558C554.526 614.57 496.319 690.863 449.134 741.603C401.613 690.504 343.406 614.21 295.265 534.286C246.998 454.152 208.89 370.438 201.767 304.839C201.782 168.235 312.526 57.5001 449.134 57.5Z" fill="#A33829" stroke="#FAF6F1"/>
</mask>
<g mask="url(#mask0_4_42)">
<path d="M335.877 288.88C335.877 170.471 521.23 159.896 551.051 271.094C564.62 321.691 544.938 371.852 499.455 396.357C477.305 410.474 441.892 409.912 417.187 404.928C392.336 399.915 374.21 387.726 348.182 388.011C338.801 389.002 344.113 441.465 344.055 449.471C344.397 471.791 348.536 599.803 348.536 599.803V650.846" stroke="#FAF6F1" stroke-width="80" stroke-linecap="round" stroke-linejoin="round"/>
</g>
<ellipse cx="326.482" cy="661.402" rx="33.6029" ry="33.6029" fill="#A33829"/>
<ellipse cx="239.043" cy="661.402" rx="33.6029" ry="33.6029" fill="#A33829"/>
<ellipse cx="151.603" cy="661.402" rx="33.6029" ry="33.6029" fill="#A33829"/>
<path d="M804.25 520V345H872.5C887.833 345 900.917 347.417 911.75 352.25C922.583 357.083 930.917 364.083 936.75 373.25C942.583 382.417 945.5 393.333 945.5 406C945.5 418.667 942.583 429.583 936.75 438.75C930.917 447.75 922.583 454.75 911.75 459.75C900.917 464.583 887.833 467 872.5 467H818L829.25 455.25V520H804.25ZM829.25 457.75L818 445.25H871.75C887.75 445.25 899.833 441.833 908 435C916.333 428.167 920.5 418.5 920.5 406C920.5 393.5 916.333 383.833 908 377C899.833 370.167 887.75 366.75 871.75 366.75H818L829.25 354.25V457.75Z" fill="#A33829"/>
<path d="M976.287 520V387.5H999.287V423.5L997.037 414.5C1000.7 405.333 1006.87 398.333 1015.54 393.5C1024.2 388.667 1034.87 386.25 1047.54 386.25V409.5C1046.54 409.333 1045.54 409.25 1044.54 409.25C1043.7 409.25 1042.87 409.25 1042.04 409.25C1029.2 409.25 1019.04 413.083 1011.54 420.75C1004.04 428.417 1000.29 439.5 1000.29 454V520H976.287Z" fill="#A33829"/>
<path d="M1132.65 521.5C1119.31 521.5 1107.48 518.583 1097.15 512.75C1086.81 506.917 1078.65 498.917 1072.65 488.75C1066.65 478.417 1063.65 466.75 1063.65 453.75C1063.65 440.583 1066.65 428.917 1072.65 418.75C1078.65 408.583 1086.81 400.667 1097.15 395C1107.48 389.167 1119.31 386.25 1132.65 386.25C1145.81 386.25 1157.56 389.167 1167.9 395C1178.4 400.667 1186.56 408.583 1192.4 418.75C1198.4 428.75 1201.4 440.417 1201.4 453.75C1201.4 466.917 1198.4 478.583 1192.4 488.75C1186.56 498.917 1178.4 506.917 1167.9 512.75C1157.56 518.583 1145.81 521.5 1132.65 521.5ZM1132.65 500.5C1141.15 500.5 1148.73 498.583 1155.4 494.75C1162.23 490.917 1167.56 485.5 1171.4 478.5C1175.23 471.333 1177.15 463.083 1177.15 453.75C1177.15 444.25 1175.23 436.083 1171.4 429.25C1167.56 422.25 1162.23 416.833 1155.4 413C1148.73 409.167 1141.15 407.25 1132.65 407.25C1124.15 407.25 1116.56 409.167 1109.9 413C1103.23 416.833 1097.9 422.25 1093.9 429.25C1089.9 436.083 1087.9 444.25 1087.9 453.75C1087.9 463.083 1089.9 471.333 1093.9 478.5C1097.9 485.5 1103.23 490.917 1109.9 494.75C1116.56 498.583 1124.15 500.5 1132.65 500.5Z" fill="#A33829"/>
<path d="M1265.68 520L1207.68 387.5H1232.68L1284.18 507.5H1272.18L1324.68 387.5H1348.18L1290.18 520H1265.68Z" fill="#A33829"/>
<path d="M1425.91 521.5C1411.75 521.5 1399.25 518.583 1388.41 512.75C1377.75 506.917 1369.41 498.917 1363.41 488.75C1357.58 478.583 1354.66 466.917 1354.66 453.75C1354.66 440.583 1357.5 428.917 1363.16 418.75C1369 408.583 1376.91 400.667 1386.91 395C1397.08 389.167 1408.5 386.25 1421.16 386.25C1434 386.25 1445.33 389.083 1455.16 394.75C1465 400.417 1472.66 408.417 1478.16 418.75C1483.83 428.917 1486.66 440.833 1486.66 454.5C1486.66 455.5 1486.58 456.667 1486.41 458C1486.41 459.333 1486.33 460.583 1486.16 461.75H1373.41V444.5H1473.66L1463.91 450.5C1464.08 442 1462.33 434.417 1458.66 427.75C1455 421.083 1449.91 415.917 1443.41 412.25C1437.08 408.417 1429.66 406.5 1421.16 406.5C1412.83 406.5 1405.41 408.417 1398.91 412.25C1392.41 415.917 1387.33 421.167 1383.66 428C1380 434.667 1378.16 442.333 1378.16 451V455C1378.16 463.833 1380.16 471.75 1384.16 478.75C1388.33 485.583 1394.08 490.917 1401.41 494.75C1408.75 498.583 1417.16 500.5 1426.66 500.5C1434.5 500.5 1441.58 499.167 1447.91 496.5C1454.41 493.833 1460.08 489.833 1464.91 484.5L1478.16 500C1472.16 507 1464.66 512.333 1455.66 516C1446.83 519.667 1436.91 521.5 1425.91 521.5Z" fill="#A33829"/>
<path d="M1519.99 520V387.5H1542.99V423.25L1539.24 413.75C1543.57 405.083 1550.24 398.333 1559.24 393.5C1568.24 388.667 1578.74 386.25 1590.74 386.25C1601.57 386.25 1611.07 388.333 1619.24 392.5C1627.57 396.667 1634.07 403 1638.74 411.5C1643.4 420 1645.74 430.75 1645.74 443.75V520H1621.74V446.5C1621.74 433.667 1618.57 424 1612.24 417.5C1606.07 411 1597.32 407.75 1585.99 407.75C1577.49 407.75 1570.07 409.417 1563.74 412.75C1557.4 416.083 1552.49 421 1548.99 427.5C1545.65 434 1543.99 442.083 1543.99 451.75V520H1519.99Z" fill="#A33829"/>
<path d="M1772.4 520V492L1771.15 486.75V439C1771.15 428.833 1768.15 421 1762.15 415.5C1756.32 409.833 1747.49 407 1735.65 407C1727.82 407 1720.15 408.333 1712.65 411C1705.15 413.5 1698.82 416.917 1693.65 421.25L1683.65 403.25C1690.49 397.75 1698.65 393.583 1708.15 390.75C1717.82 387.75 1727.9 386.25 1738.4 386.25C1756.57 386.25 1770.57 390.667 1780.4 399.5C1790.24 408.333 1795.15 421.833 1795.15 440V520H1772.4ZM1728.9 521.5C1719.07 521.5 1710.4 519.833 1702.9 516.5C1695.57 513.167 1689.9 508.583 1685.9 502.75C1681.9 496.75 1679.9 490 1679.9 482.5C1679.9 475.333 1681.57 468.833 1684.9 463C1688.4 457.167 1693.99 452.5 1701.65 449C1709.49 445.5 1719.99 443.75 1733.15 443.75H1775.15V461H1734.15C1722.15 461 1714.07 463 1709.9 467C1705.74 471 1703.65 475.833 1703.65 481.5C1703.65 488 1706.24 493.25 1711.4 497.25C1716.57 501.083 1723.74 503 1732.9 503C1741.9 503 1749.74 501 1756.4 497C1763.24 493 1768.15 487.167 1771.15 479.5L1775.9 496C1772.74 503.833 1767.15 510.083 1759.15 514.75C1751.15 519.25 1741.07 521.5 1728.9 521.5Z" fill="#A33829"/>
<path d="M1839.57 520V387.5H1862.57V423.25L1858.82 413.75C1863.15 405.083 1869.82 398.333 1878.82 393.5C1887.82 388.667 1898.32 386.25 1910.32 386.25C1921.15 386.25 1930.65 388.333 1938.82 392.5C1947.15 396.667 1953.65 403 1958.32 411.5C1962.99 420 1965.32 430.75 1965.32 443.75V520H1941.32V446.5C1941.32 433.667 1938.15 424 1931.82 417.5C1925.65 411 1916.9 407.75 1905.57 407.75C1897.07 407.75 1889.65 409.417 1883.32 412.75C1876.99 416.083 1872.07 421 1868.57 427.5C1865.24 434 1863.57 442.083 1863.57 451.75V520H1839.57Z" fill="#A33829"/>
<path d="M2067.48 521.5C2053.98 521.5 2041.9 518.583 2031.23 512.75C2020.73 506.917 2012.48 498.917 2006.48 488.75C2000.48 478.583 1997.48 466.917 1997.48 453.75C1997.48 440.583 2000.48 428.917 2006.48 418.75C2012.48 408.583 2020.73 400.667 2031.23 395C2041.9 389.167 2053.98 386.25 2067.48 386.25C2079.48 386.25 2090.15 388.667 2099.48 393.5C2108.98 398.167 2116.32 405.167 2121.48 414.5L2103.23 426.25C2098.9 419.75 2093.57 415 2087.23 412C2081.07 408.833 2074.4 407.25 2067.23 407.25C2058.57 407.25 2050.82 409.167 2043.98 413C2037.15 416.833 2031.73 422.25 2027.73 429.25C2023.73 436.083 2021.73 444.25 2021.73 453.75C2021.73 463.25 2023.73 471.5 2027.73 478.5C2031.73 485.5 2037.15 490.917 2043.98 494.75C2050.82 498.583 2058.57 500.5 2067.23 500.5C2074.4 500.5 2081.07 499 2087.23 496C2093.57 492.833 2098.9 488 2103.23 481.5L2121.48 493C2116.32 502.167 2108.98 509.25 2099.48 514.25C2090.15 519.083 2079.48 521.5 2067.48 521.5Z" fill="#A33829"/>
<path d="M2209.6 521.5C2195.44 521.5 2182.94 518.583 2172.1 512.75C2161.44 506.917 2153.1 498.917 2147.1 488.75C2141.27 478.583 2138.35 466.917 2138.35 453.75C2138.35 440.583 2141.19 428.917 2146.85 418.75C2152.69 408.583 2160.6 400.667 2170.6 395C2180.77 389.167 2192.19 386.25 2204.85 386.25C2217.69 386.25 2229.02 389.083 2238.85 394.75C2248.69 400.417 2256.35 408.417 2261.85 418.75C2267.52 428.917 2270.35 440.833 2270.35 454.5C2270.35 455.5 2270.27 456.667 2270.1 458C2270.1 459.333 2270.02 460.583 2269.85 461.75H2157.1V444.5H2257.35L2247.6 450.5C2247.77 442 2246.02 434.417 2242.35 427.75C2238.69 421.083 2233.6 415.917 2227.1 412.25C2220.77 408.417 2213.35 406.5 2204.85 406.5C2196.52 406.5 2189.1 408.417 2182.6 412.25C2176.1 415.917 2171.02 421.167 2167.35 428C2163.69 434.667 2161.85 442.333 2161.85 451V455C2161.85 463.833 2163.85 471.75 2167.85 478.75C2172.02 485.583 2177.77 490.917 2185.1 494.75C2192.44 498.583 2200.85 500.5 2210.35 500.5C2218.19 500.5 2225.27 499.167 2231.6 496.5C2238.1 493.833 2243.77 489.833 2248.6 484.5L2261.85 500C2255.85 507 2248.35 512.333 2239.35 516C2230.52 519.667 2220.6 521.5 2209.6 521.5Z" fill="#A33829"/>
</svg>
